<?xml version="1.0" encoding="UTF-8" standalone="no"?>
<!-- Generator: Adobe Illustrator 19.0.0, SVG Export Plug-In . SVG Version: 6.00 Build 0)  -->

<svg
   version="1.1"
   id="Capa_1"
   x="0px"
   y="0px"
   viewBox="0 0 486.8 472.41176"
   xml:space="preserve"
   sodipodi:docname="password-reset.svg"
   width="486.79999"
   height="472.41174"
   inkscape:version="1.2.1 (9c6d41e410, 2022-07-14)"
   xmlns:inkscape="http://www.inkscape.org/namespaces/inkscape"
   xmlns:sodipodi="http://sodipodi.sourceforge.net/DTD/sodipodi-0.dtd"
   xmlns="http://www.w3.org/2000/svg"
   xmlns:svg="http://www.w3.org/2000/svg"><defs
   id="defs9827" /><sodipodi:namedview
   id="namedview9825"
   pagecolor="#ffffff"
   bordercolor="#000000"
   borderopacity="0.25"
   inkscape:showpageshadow="2"
   inkscape:pageopacity="0.0"
   inkscape:pagecheckerboard="0"
   inkscape:deskcolor="#d1d1d1"
   showgrid="false"
   inkscape:zoom="0.85147907"
   inkscape:cx="-243.10639"
   inkscape:cy="278.3392"
   inkscape:window-width="1920"
   inkscape:window-height="1009"
   inkscape:window-x="-8"
   inkscape:window-y="247"
   inkscape:window-maximized="1"
   inkscape:current-layer="Capa_1" />
<g
   id="g9792"
   transform="translate(0,-7.194261)">
	<g
   id="g9790">
		<path
   d="m 80,370.406 c -1.9,-3.3 -6.2,-4.4 -9.5,-2.5 l -17.4,10.1 v -20.1 c 0,-3.8 -3.1,-6.9 -6.9,-6.9 -3.8,0 -6.9,3.1 -6.9,6.9 v 20.1 l -17.4,-10.1 c -3.3,-1.9 -7.6,-0.8 -9.5,2.5 -1.9,3.3 -0.8,7.6 2.5,9.5 l 17.5,10.2 -17.5,10.2 c -3.3,1.9 -4.4,6.2 -2.5,9.5 1.9,3.3 6.2,4.4 9.5,2.5 l 17.4,-10.1 v 20.1 c 0,3.8 3.1,6.9 6.9,6.9 3.8,0 6.9,-3.1 6.9,-6.9 v -20.1 l 17.4,10.1 c 3.3,1.9 7.6,0.8 9.5,-2.5 1.9,-3.3 0.8,-7.6 -2.5,-9.5 l -17.5,-10.2 17.5,-10.2 c 3.3,-2 4.5,-6.2 2.5,-9.5 z"
   id="path9772" />
		<path
   d="m 143.9,409.706 c 1.9,3.3 6.2,4.4 9.5,2.5 l 17.4,-10.1 v 20.1 c 0,3.8 3.1,6.9 6.9,6.9 3.8,0 6.9,-3.1 6.9,-6.9 v -20.1 l 17.4,10.1 c 3.3,1.9 7.6,0.8 9.5,-2.5 1.9,-3.3 0.8,-7.6 -2.5,-9.5 l -17.5,-10.2 17.5,-10.2 c 3.3,-1.9 4.4,-6.2 2.5,-9.5 -1.9,-3.3 -6.2,-4.4 -9.5,-2.5 l -17.4,10.1 v -20.1 c 0,-3.8 -3.1,-6.9 -6.9,-6.9 -3.8,0 -6.9,3.1 -6.9,6.9 v 20.1 l -17.4,-10 c -3.3,-1.9 -7.6,-0.8 -9.5,2.5 -1.9,3.3 -0.8,7.6 2.5,9.5 l 17.5,10.2 -17.5,10.1 c -3.3,1.9 -4.4,6.2 -2.5,9.5 z"
   id="path9774" />
		<path
   d="m 131.5,462.106 v 12.2 c 0,2.9 2.4,5.3 5.3,5.3 h 81.9 c 2.9,0 5.3,-2.4 5.3,-5.3 v -12.2 c 0,-2.9 -2.4,-5.3 -5.3,-5.3 h -81.9 c -3,0 -5.3,2.4 -5.3,5.3 z"
   id="path9776" />
		<path
   d="m 331.1,121.106 h -0.6 v -27.2 c 0,-47.3 -38.7,-87.5 -85.9,-86.7 -45.9,0.8 -83.1,38.4 -83.1,84.5 v 2.6 c 0,3.9 3.2,7.1 7.1,7.1 h 22.7 c 3.9,0 7.1,-3.2 7.1,-7.1 v -0.8 c 0,-25.4 19.1,-47.7 44.5,-49.3 27.6,-1.7 50.6,20.2 50.6,47.4 v 29.4 h -70 v 0.1 h -64.7 c -12,0.4 -21.7,10.1 -21.7,22.2 v 123 c 0,12.3 10,22.3 22.3,22.3 H 331 c 12.3,0 22.3,-10 22.3,-22.3 v -122.9 c 0.1,-12.3 -9.9,-22.3 -22.2,-22.3 z m -72.6,89.3 c -1.7,1.2 -2.2,2.5 -2.2,4.5 0.1,9 0.1,18 0,27.1 v 0 c 0.2,3.8 -1.7,7.4 -5.1,9.1 -7.9,4 -15.8,-1.6 -15.8,-9.1 0,0 0,0 0,-0.1 0,-9 0,-18.1 0,-27.1 0,-1.8 -0.4,-3.1 -2,-4.3 -8.2,-6 -10.9,-16.3 -6.8,-25.4 4,-8.8 13.7,-14 22.8,-12.1 10.2,2 17.3,10.3 17.4,20.4 0.3,7.1 -2.6,12.9 -8.3,17 z"
   id="path9778" />
		<path
   d="m 262.9,462.106 v 12.2 c 0,2.9 2.4,5.3 5.3,5.3 h 81.9 c 2.9,0 5.3,-2.4 5.3,-5.3 v -12.2 c 0,-2.9 -2.4,-5.3 -5.3,-5.3 h -81.9 c -2.9,0 -5.3,2.4 -5.3,5.3 z"
   id="path9780" />
		<path
   d="m 275.3,409.706 c 1.9,3.3 6.2,4.4 9.5,2.5 l 17.4,-10.1 v 20.1 c 0,3.8 3.1,6.9 6.9,6.9 3.8,0 6.9,-3.1 6.9,-6.9 v -20.1 l 17.4,10.1 c 3.3,1.9 7.6,0.8 9.5,-2.5 1.9,-3.3 0.8,-7.6 -2.5,-9.5 l -17.5,-10.2 17.5,-10.2 c 3.3,-1.9 4.4,-6.2 2.5,-9.5 -1.9,-3.3 -6.2,-4.4 -9.5,-2.5 l -17.4,10.1 v -20.1 c 0,-3.8 -3.1,-6.9 -6.9,-6.9 -3.8,0 -6.9,3.1 -6.9,6.9 v 20.1 l -17.4,-10.1 c -3.3,-1.9 -7.6,-0.8 -9.5,2.5 -1.9,3.3 -0.8,7.6 2.5,9.5 l 17.5,10.2 -17.5,10.2 c -3.3,1.9 -4.4,6.2 -2.5,9.5 z"
   id="path9782" />
		<path
   d="m 481.5,456.806 h -81.9 c -2.9,0 -5.3,2.4 -5.3,5.3 v 12.2 c 0,2.9 2.4,5.3 5.3,5.3 h 81.9 c 2.9,0 5.3,-2.4 5.3,-5.3 v -12.2 c 0,-2.9 -2.4,-5.3 -5.3,-5.3 z"
   id="path9784" />
		<path
   d="m 5.3,479.606 h 81.9 c 2.9,0 5.3,-2.4 5.3,-5.3 v -12.2 c 0,-2.9 -2.4,-5.3 -5.3,-5.3 H 5.3 c -2.9,0 -5.3,2.4 -5.3,5.3 v 12.2 c 0,2.9 2.4,5.3 5.3,5.3 z"
   id="path9786" />
		<path
   d="m 406.8,409.706 c 1.9,3.3 6.2,4.4 9.5,2.5 l 17.4,-10.1 v 20.1 c 0,3.8 3.1,6.9 6.9,6.9 3.8,0 6.9,-3.1 6.9,-6.9 v -20.1 l 17.4,10.1 c 3.3,1.9 7.6,0.8 9.5,-2.5 1.9,-3.3 0.8,-7.6 -2.5,-9.5 l -17.5,-10.2 17.5,-10.2 c 3.3,-1.9 4.4,-6.2 2.5,-9.5 -1.9,-3.3 -6.2,-4.4 -9.5,-2.5 l -17.4,10.1 v -20.1 c 0,-3.8 -3.1,-6.9 -6.9,-6.9 -3.8,0 -6.9,3.1 -6.9,6.9 v 20.1 l -17.4,-10.1 c -3.3,-1.9 -7.6,-0.8 -9.5,2.5 -1.9,3.3 -0.8,7.6 2.5,9.5 l 17.5,10.2 -17.5,10.2 c -3.3,1.9 -4.5,6.2 -2.5,9.5 z"
   id="path9788" />
	</g>
</g>
<g
   id="g9794"
   transform="translate(-714.05161,-13.066396)">
</g>
<g
   id="g9796"
   transform="translate(-714.05161,-13.066396)">
</g>
<g
   id="g9798"
   transform="translate(-714.05161,-13.066396)">
</g>
<g
   id="g9800"
   transform="translate(-714.05161,-13.066396)">
</g>
<g
   id="g9802"
   transform="translate(-714.05161,-13.066396)">
</g>
<g
   id="g9804"
   transform="translate(-714.05161,-13.066396)">
</g>
<g
   id="g9806"
   transform="translate(-714.05161,-13.066396)">
</g>
<g
   id="g9808"
   transform="translate(-714.05161,-13.066396)">
</g>
<g
   id="g9810"
   transform="translate(-714.05161,-13.066396)">
</g>
<g
   id="g9812"
   transform="translate(-714.05161,-13.066396)">
</g>
<g
   id="g9814"
   transform="translate(-714.05161,-13.066396)">
</g>
<g
   id="g9816"
   transform="translate(-714.05161,-13.066396)">
</g>
<g
   id="g9818"
   transform="translate(-714.05161,-13.066396)">
</g>
<g
   id="g9820"
   transform="translate(-714.05161,-13.066396)">
</g>
<g
   id="g9822"
   transform="translate(-714.05161,-13.066396)">
</g>
</svg>
